M48
;FILE_FORMAT=2:4
INCH
;TYPE=PLATED
T01C0.013
T02C0.038
T03C0.047
T04C0.059
;TYPE=NON_PLATED
T05C0.184
%
T01
X+235250Y+270750
X+235260Y+272570
X+238500Y+266375
Y+267375
X+242000Y+284125
Y+283500
X+245000Y+265260
X+245060Y+271950
Y+270840
X+245070Y+273900
X+245375Y+275000
X+246500Y+266250
X+248500
X+246510
X+247500
X+246980Y+267700
X+250500Y+266250
X+251500
X+250510
X+249500
X+250760Y+270650
X+251470Y+272480
X+249375Y+271625
X+249400Y+275100
Y+277070
Y+277060
Y+280890
X+252500Y+266250
X+254500
X+253500
X+254705Y+270901
X+252340Y+270900
X+254700
Y+270906
X+254350Y+275640
X+253125Y+276875
X+254375Y+278250
X+257500Y+266250
X+256500
X+255500
X+256080Y+270900
X+257125Y+275625
X+255750Y+274375
X+255670Y+276850
X+258500Y+266250
X+259500
X+260500
Y+271420
X+260270Y+272700
X+258750Y+270875
X+260500Y+274310
X+258500Y+274300
X+260500Y+278250
Y+276280
Y+280210
X+261500Y+266250
X+262500
X+263500
X+263380Y+267800
X+262375Y+282750
X+264650Y+270580
X+266250Y+277875
Y+279375
X+265375Y+282750
X+268240Y+270570
X+268130Y+273810
X+242000Y+284750
X+246500Y+267000
X+249400Y+273130
Y+279230
X+250590Y+279190
X+252340Y+281900
X+255340Y+272780
X+256080Y+281900
X+259230
X+262370Y+270190
X+266375Y+266875
X+254950Y+267310
X+260900Y+273320
X+258250Y+278625
X+254780Y+280150
X+260840Y+281400
X+263880Y+284710
X+267250Y+271060
X+269820
X+266750Y+274660
Y+272910
T02
X+262875Y+278750
X+264875
X+270250Y+279750
X+269250
Y+280750
X+270250
X+269250Y+281750
X+270250
X+269250Y+282750
X+270250
Y+283750
X+269250
T03
X+233656Y+284500
X+237594
X+233656Y+285484
X+237594
X+235625Y+282531
T04
X+234641Y+282531
X+237594
X+236609
X+233656
X+235625Y+284500
T05
X+243000Y+269221
X+265000Y+267174
T00
M30
